<svg width="130" height="16" viewBox="0 0 130 16" fill="none" xmlns="http://www.w3.org/2000/svg">
<path fill-rule="evenodd" clip-rule="evenodd" d="M40.8883 5.87051C41.4957 5.44247 42.2845 5.22542 43.2356 5.22542C46.1726 5.22542 48.0704 7.28588 48.0704 10.4746C48.0704 13.8827 45.962 16 42.568 16C41.3104 16 40.0177 15.6961 39.1946 15.2073C38.2628 14.6579 38.2628 13.9706 38.2628 13.3059V1.08272C38.2628 0.588928 38.4906 0 39.5755 0C40.6606 0 40.8883 0.588928 40.8883 1.08272V5.87051ZM40.8883 13.3829C41.3409 13.6663 41.9652 13.8347 42.568 13.8347C44.3262 13.8347 45.3758 12.6387 45.3758 10.6356C45.3758 8.63406 44.3352 7.39059 42.6602 7.39059C41.9709 7.39059 41.375 7.58742 40.8883 7.97571V13.3829Z" fill="#458500"/>
<path d="M3.91664 2.09551C3.91664 2.9629 3.27798 3.5925 2.39826 3.5925C1.51841 3.5925 0.879883 2.9629 0.879883 2.09551C0.879883 1.22826 1.51841 0.598524 2.39826 0.598524C3.27798 0.598524 3.91664 1.22826 3.91664 2.09551Z" fill="#458500"/>
<path d="M1.08551 6.35421C1.08551 5.86028 1.31318 5.27149 2.39826 5.27149C3.48321 5.27149 3.71101 5.86028 3.71101 6.35421V14.8484C3.71101 15.3421 3.48321 15.9308 2.39826 15.9308C1.31318 15.9308 1.08551 15.3421 1.08551 14.8484V6.35421Z" fill="#458500"/>
<path d="M16.7162 0.598524C15.83 0.598524 15.3805 0.962798 15.3805 1.68124V6.83686H8.70614V1.68124C8.70614 1.18745 8.47847 0.598524 7.39339 0.598524C6.50711 0.598524 6.05767 0.962798 6.05767 1.68124V14.8484C6.05767 15.5665 6.50711 15.9309 7.39339 15.9309C8.47847 15.9309 8.70614 15.3421 8.70614 14.8484V9.20923H15.3805V14.8484C15.3805 15.5665 15.83 15.9309 16.7162 15.9309C17.8013 15.9309 18.029 15.3421 18.029 14.8484V1.68124C18.029 1.18745 17.8013 0.598524 16.7162 0.598524Z" fill="#458500"/>
<path fill-rule="evenodd" clip-rule="evenodd" d="M26.8561 13.2686C27.207 13.0681 27.458 12.937 27.743 12.937C28.5054 12.937 28.8484 13.624 28.8484 14.1116C28.8484 14.5066 28.6044 14.8496 28.1019 15.1607C27.2205 15.7175 26.1237 16 24.8425 16C21.6278 16 19.7085 13.9945 19.7085 10.6356C19.7085 7.30715 21.6063 5.15627 24.5433 5.15627C27.2272 5.15627 29.1017 7.05927 29.1017 9.78398C29.1017 11.3384 28.4029 11.4651 27.5588 11.4651H22.3231C22.5782 12.9766 23.4641 13.7426 24.9576 13.7426C25.668 13.7426 26.3245 13.5787 26.8561 13.2686ZM26.5447 9.50696C26.5203 8.10812 25.7588 7.27564 24.4972 7.27564C23.2795 7.27564 22.5206 8.04658 22.2987 9.50696H26.5447Z" fill="#458500"/>
<path d="M36.0763 5.2254C34.8487 5.2254 33.8533 5.80908 33.2456 6.87644V6.3568C33.2579 6.03439 33.1745 5.77771 32.9973 5.59361C32.7917 5.37998 32.4646 5.27146 32.025 5.27146C31.1843 5.27146 30.7583 5.63586 30.7583 6.35417V14.8484C30.7583 15.342 30.9858 15.9308 32.071 15.9308C33.156 15.9308 33.3838 15.342 33.3838 14.8484V8.99556C33.8747 8.06886 34.5934 7.6895 35.94 7.6437C36.8385 7.62008 37.205 7.26644 37.205 6.4232C37.205 5.58377 36.8675 5.2254 36.0763 5.2254Z" fill="#458500"/>
<path fill-rule="evenodd" clip-rule="evenodd" d="M47.4092 1.84813L47.1311 1.43359C47.2862 1.3731 47.3715 1.24883 47.3715 1.08218C47.3715 0.83863 47.1993 0.693235 46.9109 0.693235H46.4908C46.4277 0.693235 46.4146 0.731159 46.4146 0.762915V1.87673C46.4146 1.92306 46.4402 1.94654 46.4908 1.94654H46.6535C46.7042 1.94654 46.7298 1.92306 46.7298 1.87673V1.47112H46.8163L47.0951 1.89563C47.1245 1.93329 47.1496 1.94654 47.191 1.94654H47.3442C47.3778 1.94654 47.4011 1.9367 47.4132 1.91715C47.4246 1.89865 47.4233 1.87595 47.4092 1.84813ZM47.0691 1.08215C47.0691 1.16797 47.0208 1.20459 46.9076 1.20459H46.7298V0.959724H46.9044C47.0215 0.959724 47.0691 0.995023 47.0691 1.08215Z" fill="#458500"/>
<path fill-rule="evenodd" clip-rule="evenodd" d="M45.656 1.31996C45.656 0.640615 46.2087 0.087905 46.8882 0.087905C47.5674 0.087905 48.1201 0.640615 48.1201 1.31996C48.1201 1.99917 47.5674 2.55188 46.8882 2.55188C46.2087 2.55188 45.656 1.99917 45.656 1.31996ZM45.8859 1.31995C45.8859 1.87082 46.3355 2.31895 46.8882 2.31895C47.4389 2.31895 47.887 1.87082 47.887 1.31995C47.887 0.769208 47.4389 0.321083 46.8882 0.321083C46.3355 0.321083 45.8859 0.769208 45.8859 1.31995Z" fill="#458500"/>
<path fill-rule="evenodd" clip-rule="evenodd" d="M57.5 7.5263V0.438074C57.5 0.155586 57.3224 0 57.0001 0C56.6776 0 56.5 0.155586 56.5 0.438074V15.5619C56.5 15.8444 56.6776 16 57.0001 16C57.3224 16 57.5 15.8444 57.5 15.5619V7.5263Z" fill="#CCCCCC"/>
<path fill-rule="evenodd" clip-rule="evenodd" d="M72.7442 14.9753L70.3185 8.66206C72.0186 8.17186 72.2574 6.78794 72.2574 5.35879V3.56239C72.2574 1.03199 71.1784 0 68.5335 0H66.1165C65.7303 0 65.5 0.220485 65.5 0.58961V15.1537C65.5 15.5306 65.736 15.7647 66.1165 15.7647H66.9798C67.3601 15.7647 67.5963 15.5306 67.5963 15.1537V8.92142H68.1984L70.6633 15.3438C70.7216 15.536 70.8746 15.7647 71.2737 15.7647L72.2534 15.7645C72.4545 15.7527 72.6168 15.6644 72.7109 15.5155C72.8086 15.36 72.821 15.1565 72.7442 14.9753ZM70.1825 3.56237V5.35876C70.1825 6.51561 69.9196 7.14267 68.5335 7.14267H67.5963V1.77823H68.5335C69.9125 1.77823 70.1825 2.43239 70.1825 3.56237Z" fill="#4F6157"/>
<path d="M80.4119 1.77825C80.7927 1.77825 81.0294 1.5441 81.0294 1.16697V0.58961C81.0294 0.220485 80.7986 0 80.4119 0H75.5293C75.1426 0 74.9118 0.220485 74.9118 0.58961V15.1537C74.9118 15.5306 75.1483 15.7647 75.5293 15.7647H80.4119C80.7927 15.7647 81.0294 15.5306 81.0294 15.1537V14.5763C81.0294 14.2069 80.7986 13.9865 80.4119 13.9865H77.0111V8.7716H79.5909C79.9719 8.7716 80.2082 8.53745 80.2082 8.16032V7.58296C80.2082 7.2136 79.9776 6.99311 79.5909 6.99311H77.0111V1.77825H80.4119Z" fill="#4F6157"/>
<path d="M93.1885 0C93.3522 0 93.4894 0.0541791 93.5846 0.156648C93.6964 0.276785 93.748 0.459345 93.733 0.684541L92.1993 15.1685C92.1467 15.5654 91.9354 15.7647 91.5703 15.7647H89.8034C89.4228 15.7647 89.1993 15.5511 89.1737 15.1631L88.45 6.18278L88.3236 3.97274L88.1972 6.17948L87.473 15.165C87.4474 15.5511 87.2239 15.7647 86.844 15.7647H85.0766C84.6965 15.7647 84.473 15.5511 84.4469 15.1631L82.9146 0.689959C82.8993 0.465234 82.9528 0.283851 83.0682 0.159711C83.1655 0.0551214 83.3004 0 83.4582 0H84.31C84.647 0 84.8714 0.213183 84.8965 0.55616L85.8121 10.0505L85.9777 12.571L86.1289 10.0552L86.9596 0.555925C86.9861 0.208236 87.2138 0 87.5677 0H89.0792C89.4204 0 89.6362 0.194574 89.6866 0.548387L90.5177 10.0514L90.6585 12.6254L90.813 10.0552L91.7504 0.554511C91.7767 0.213419 92.0016 0 92.3369 0H93.1885Z" fill="#4F6157"/>
<path fill-rule="evenodd" clip-rule="evenodd" d="M102.433 15.0682L100.182 0.592201C100.129 0.199285 99.9146 0 99.5439 0H97.5962C97.2162 0 96.9881 0.204703 96.9359 0.58961L94.6855 15.0696C94.6559 15.274 94.7017 15.458 94.8149 15.5869C94.9171 15.7032 95.0632 15.7647 95.2375 15.7647H96.1465C96.4793 15.7647 96.7098 15.5602 96.7634 15.2168L97.1783 12.4073H99.9408L100.376 15.213C100.404 15.5433 100.643 15.7647 100.972 15.7647H101.881C102.058 15.7647 102.205 15.7049 102.306 15.5913C102.418 15.4651 102.462 15.2849 102.433 15.0682ZM99.6819 10.6287H97.4155L98.1484 5.80302L98.5593 2.38173L98.97 5.80679L99.6819 10.6287Z" fill="#4F6157"/>
<path fill-rule="evenodd" clip-rule="evenodd" d="M109.142 8.66206L111.568 14.9753C111.644 15.1565 111.632 15.36 111.534 15.5155C111.44 15.6644 111.278 15.7527 111.077 15.7645L110.097 15.7647C109.698 15.7647 109.545 15.536 109.487 15.3438L107.022 8.92142H106.42V15.1537C106.42 15.5306 106.184 15.7647 105.803 15.7647H104.94C104.56 15.7647 104.324 15.5306 104.324 15.1537V0.58961C104.324 0.220485 104.554 0 104.94 0H107.357C110.002 0 111.081 1.03199 111.081 3.56239V5.35879C111.081 6.78794 110.842 8.17186 109.142 8.66206ZM109.006 5.35876V3.56237C109.006 2.43239 108.736 1.77823 107.357 1.77823H106.42V7.14267H107.357C108.743 7.14267 109.006 6.51561 109.006 5.35876Z" fill="#4F6157"/>
<path fill-rule="evenodd" clip-rule="evenodd" d="M116.693 0H114.337C113.96 0 113.735 0.220485 113.735 0.58961V15.1537C113.735 15.5306 113.966 15.7647 114.337 15.7647H116.693C119.272 15.7647 120.324 14.7264 120.324 12.1811V3.56239C120.324 1.03199 119.272 0 116.693 0ZM116.693 13.9864H115.779V1.77823H116.693C118.037 1.77823 118.3 2.43239 118.3 3.56237V12.1811C118.3 13.3243 118.037 13.9864 116.693 13.9864Z" fill="#4F6157"/>
<path d="M128.912 5.91373H128.038C127.665 5.91373 127.451 5.69838 127.451 5.32311V3.28873C127.451 2.35799 127.221 1.78082 126.078 1.78082C124.947 1.78082 124.726 2.33393 124.726 3.28873C124.726 4.63272 124.872 5.1764 125.838 6.18946L128.055 8.52363C129.013 9.48622 129.5 10.3993 129.5 12.7113C129.5 15.0469 128.508 16 126.078 16C123.662 16 122.677 15.0469 122.677 12.7113V10.6767C122.677 10.2936 122.896 10.0648 123.264 10.0648H124.138C124.506 10.0648 124.726 10.2936 124.726 10.6767V12.7113C124.726 13.6663 124.947 14.2192 126.078 14.2192C127.221 14.2192 127.451 13.642 127.451 12.7113C127.451 11.3861 127.305 10.8444 126.338 9.80936L124.122 7.47613C123.164 6.53548 122.677 5.62833 122.677 3.28873C122.677 0.95315 123.662 0 126.078 0C128.508 0 129.5 0.95315 129.5 3.28873V5.32311C129.5 5.69838 129.286 5.91373 128.912 5.91373Z" fill="#4F6157"/>
</svg>
